<svg xmlns="http://www.w3.org/2000/svg" width="129" height="41" viewBox="0 0 129 41">
    <g fill="none" fill-rule="evenodd">
        <g>
            <g>
                <path fill="#1F1E1C" d="M128.664 14.889c0 8.223-6.666 14.89-14.89 14.89-8.222 0-14.888-6.667-14.888-14.89S105.552 0 113.775 0c8.223 0 14.889 6.666 14.889 14.889M0 1.099L5.15 1.099 5.15 24.096 16.115 24.096 16.115 17.437 21.265 17.437 21.265 28.98 0 28.98zM22.685 1.099L44.084 1.099 44.084 5.983 27.835 5.983 27.835 12.243 39.156 12.243 39.156 17.126 27.835 17.126 27.835 24.096 44.084 24.096 44.084 28.98 22.685 28.98z" transform="translate(-160 -82) translate(160 82.306)"/>
                <path fill="#1F1E1C" d="M57.439.522c4.44 0 8.79 1.82 11.898 5.727l-4.262 3.197c-1.776-2.575-4.484-4.04-7.636-4.04-5.017 0-9.545 4.218-9.545 9.634s4.528 9.633 9.545 9.633c4.617 0 8.346-2.797 9.456-7.547h-9.5v-4.883H72.4v3.684c0 4.573-4.129 13.63-14.961 13.63-8.347 0-14.961-6.349-14.961-14.517 0-8.17 6.614-14.518 14.961-14.518M79.113 11.888L79.113 28.98 73.963 28.98 73.963.522 91.944 18.192 91.944 1.1 97.094 1.1 97.094 29.557z" transform="translate(-160 -82) translate(160 82.306)"/>
                <path fill="#FEFEFE" d="M104.09 8.32v8.582c0 1.11.237 1.507.85 1.863l1.111.635-.912 1.625c-2.12-1.011-3.111-1.744-3.111-3.746v-8.96h2.061z" transform="translate(-160 -82) translate(160 82.306)"/>
                <path fill="#FEFEFE" d="M110.869 19.083c1.625 0 3.012-1.388 3.012-3.112 0-1.724-1.387-3.112-3.012-3.112-1.665 0-3.053 1.388-3.053 3.112 0 1.724 1.388 3.112 3.053 3.112zm2.933.515h-.04c-.654.872-1.843 1.427-3.151 1.427-3.152 0-4.975-2.577-4.975-5.054 0-2.359 1.962-5.055 5.074-5.055 1.427 0 2.517.615 3.052 1.427h.04v-1.169h2.061v9.593h-2.06v-1.17zM121.855 12.859c-1.725 0-2.994 1.328-2.994 3.112s1.27 3.111 2.994 3.111c1.724 0 2.993-1.327 2.993-3.111 0-1.784-1.269-3.112-2.993-3.112zm-5.055-4.54h2.061v4.025h.04c.495-.793 1.785-1.428 3.132-1.428 2.497 0 4.995 1.844 4.995 5.055 0 3.21-2.498 5.054-4.995 5.054-1.347 0-2.637-.634-3.131-1.427h-.04v1.17H116.8V8.32z" transform="translate(-160 -82) translate(160 82.306)"/>
                <path fill="#1F1E1C" d="M.954 39.695h1.7v.335c0 .046-.01.076-.03.09-.02.015-.05.022-.09.022H.474v-5.843c0-.04.002-.073.008-.098.006-.026.023-.043.052-.052.028-.009.076-.014.142-.017.065-.003.158-.005.279-.005v5.568zM3.918 38.045h1.555l-.413-1.589c-.046-.166-.088-.333-.128-.503-.04-.169-.076-.328-.108-.476-.031-.15-.058-.284-.081-.405-.023-.12-.038-.22-.043-.3l-.048.3c-.02.12-.047.256-.081.405l-.112.476c-.04.17-.083.337-.129.503l-.412 1.59zm1.675.438H3.806l-.395 1.564c-.012.046-.032.075-.06.086-.029.012-.086.018-.172.018h-.12c-.052 0-.11-.006-.172-.018l1.624-5.962c.005-.052.06-.078.163-.078.086 0 .155.009.206.026l1.624 5.911c.011.046.004.077-.022.095-.025.017-.084.026-.176.026H6.19c-.048 0-.104-.004-.167-.01l-.43-1.658zM10.516 35.743c0-.172-.014-.33-.043-.473-.029-.143-.08-.267-.154-.374-.075-.105-.172-.188-.293-.249-.12-.06-.272-.09-.455-.09h-.584v2.595h.541c.659 0 .988-.47.988-1.41zm-1.993-1.495c0-.017.006-.037.017-.06l.034-.039c.012-.014.032-.021.06-.021h.894c.538 0 .924.146 1.155.438.232.292.349.69.349 1.194 0 .487-.08.868-.237 1.143-.157.275-.373.47-.648.584.063.08.137.193.223.34.086.145.172.323.258.532.086.21.164.451.236.726.072.275.122.584.15.928.006.052-.004.086-.03.103-.025.017-.093.029-.202.035h-.116c-.042 0-.093-.003-.15-.01-.04-.389-.097-.73-.172-1.022-.074-.292-.153-.54-.236-.747-.083-.206-.163-.372-.24-.498-.078-.126-.14-.22-.186-.284-.028.006-.06.009-.094.009h-.601v2.431c0 .029-.003.05-.009.065-.006.014-.023.025-.051.034-.029.009-.075.013-.138.013h-.266v-5.894zM11.77 34.368c0-.057.003-.103.01-.137.005-.035.024-.059.055-.073.031-.015.08-.023.146-.026.066-.003.156-.004.27-.004v5.902c0 .029-.002.05-.008.064-.006.015-.024.026-.056.035-.031.009-.078.013-.141.013h-.276v-5.774zM12.784 34.29c-.011-.056-.014-.098-.008-.124.005-.026.04-.039.103-.039h.378l.954 3.764c.08.35.149.674.206.975.057.3.109.583.155.846.045-.263.093-.545.141-.846.049-.3.113-.626.194-.975l.867-3.592c.012-.057.025-.1.039-.128.014-.029.047-.044.099-.044h.387l-1.47 6.066-.159.017c-.054.006-.124.01-.21.01-.075 0-.135-.048-.18-.143-.046-.094-.09-.216-.13-.365-.045-.177-.101-.39-.167-.64s-.135-.518-.206-.808l-.224-.898-.227-.901-.542-2.174M16.805 34.368c0-.057.003-.103.009-.137.005-.035.024-.059.056-.073.031-.015.08-.023.146-.026.065-.003.156-.004.27-.004v5.902c0 .029-.002.05-.008.064-.006.015-.025.026-.056.035-.032.009-.079.013-.142.013h-.275v-5.774zM19.503 34.042c.384 0 .66.038.829.116.169.077.253.164.253.262 0 .103-.043.197-.129.283-.068-.051-.181-.103-.339-.154-.157-.052-.35-.078-.58-.078-.298 0-.535.066-.713.198-.177.132-.266.306-.266.524 0 .178.044.338.133.48.089.144.202.293.34.448l1.022 1.057c.24.257.403.498.49.721.085.224.128.476.128.756 0 .224-.027.431-.081.624-.055.191-.142.357-.262.498-.12.14-.275.25-.464.33-.19.08-.419.12-.687.12-.201 0-.372-.015-.512-.047-.14-.031-.258-.07-.352-.116-.095-.045-.164-.094-.206-.146-.043-.051-.065-.1-.065-.146 0-.057.012-.116.035-.176.022-.06.057-.113.103-.159.091.086.213.16.365.22s.35.09.597.09c.372 0 .637-.098.795-.293.157-.194.236-.446.236-.756 0-.12-.01-.233-.03-.339-.02-.106-.053-.21-.099-.313-.046-.104-.107-.208-.185-.314-.077-.106-.173-.22-.287-.34l-.928-.97c-.195-.218-.341-.421-.438-.61-.098-.19-.147-.393-.147-.61 0-.338.125-.616.374-.834.25-.218.606-.326 1.07-.326M22.725 34.574v5.456c0 .029-.003.05-.009.065-.006.014-.024.025-.056.034-.031.009-.078.013-.141.013h-.267v-5.568H20.99v-.326c0-.08.038-.12.112-.12h2.921v.335c0 .074-.037.111-.111.111h-1.186zM24.615 38.045h1.555l-.412-1.589c-.046-.166-.09-.333-.13-.503-.04-.169-.075-.328-.106-.476-.032-.15-.06-.284-.082-.405-.023-.12-.038-.22-.043-.3l-.047.3c-.02.12-.048.256-.082.405l-.112.476c-.04.17-.083.337-.128.503l-.413 1.59zm1.675.438h-1.787l-.395 1.564c-.011.046-.031.075-.06.086-.029.012-.086.018-.172.018h-.12c-.052 0-.109-.006-.172-.018l1.624-5.962c.005-.052.06-.078.163-.078.086 0 .155.009.206.026l1.624 5.911c.011.046.004.077-.021.095-.026.017-.085.026-.177.026h-.116c-.048 0-.104-.004-.167-.01l-.43-1.658zM31.213 35.726c0-.166-.014-.321-.043-.465-.029-.142-.08-.266-.154-.369-.075-.103-.172-.184-.292-.245-.12-.06-.273-.09-.456-.09h-.584v2.595h.541c.659 0 .988-.476.988-1.426zm-1.993-1.478c0-.08.037-.12.112-.12h.893c.538 0 .924.146 1.156.438.232.292.348.69.348 1.194 0 .327-.037.606-.112.838-.074.232-.18.422-.318.571-.137.15-.3.258-.49.326-.189.07-.395.104-.618.104h-.507v2.431c0 .029-.003.05-.009.064-.006.015-.023.027-.051.035-.029.009-.075.013-.138.013h-.266v-5.894zM34.573 39.704c0 .2-.005.323-.013.37-.009.045-.039.068-.09.068h-2.054v-5.894c0-.017.006-.037.017-.06.012-.011.023-.025.035-.039.011-.014.031-.022.06-.022h2.053c0 .195-.003.317-.008.366-.006.048-.032.073-.078.073H32.88v2.07h1.512c0 .184-.004.303-.013.357-.008.055-.039.082-.09.082H32.88v2.629h1.693zM37.287 35.743c0-.172-.014-.33-.042-.473-.03-.143-.08-.267-.155-.374-.074-.105-.172-.188-.292-.249-.12-.06-.272-.09-.455-.09h-.585v2.595h.542c.658 0 .987-.47.987-1.41zm-1.993-1.495c0-.017.006-.037.018-.06l.034-.039c.011-.014.031-.021.06-.021h.894c.538 0 .923.146 1.155.438.232.292.348.69.348 1.194 0 .487-.079.868-.236 1.143-.158.275-.374.47-.649.584.063.08.138.193.224.34.086.145.171.323.257.532.086.21.165.451.237.726.071.275.121.584.15.928.006.052-.004.086-.03.103s-.093.029-.202.035h-.116c-.043 0-.093-.003-.15-.01-.04-.389-.098-.73-.172-1.022-.075-.292-.154-.54-.237-.747-.083-.206-.163-.372-.24-.498-.077-.126-.14-.22-.185-.284-.029.006-.06.009-.094.009h-.602v2.431c0 .029-.003.05-.008.065-.006.014-.023.025-.052.034-.028.009-.074.013-.137.013h-.267v-5.894zM41.678 34.042c.263 0 .48.04.649.12.168.08.253.172.253.275 0 .091-.023.189-.069.292-.092-.069-.197-.125-.318-.167-.12-.043-.263-.065-.43-.065-.223 0-.422.04-.596.12-.175.08-.321.222-.439.426-.117.203-.207.48-.27.829-.063.35-.094.793-.094 1.331 0 .567.028 1.02.085 1.358.057.338.136.596.237.773.1.178.219.294.356.348.138.055.286.082.447.082.206 0 .368-.04.486-.12.116-.08.19-.15.218-.207v-2.31h-.842v-.293c0-.074.043-.112.13-.112h1.16v3.024c-.035.035-.083.08-.143.134-.06.054-.137.107-.232.159-.094.051-.207.096-.339.133-.132.037-.284.056-.455.056-.252 0-.479-.039-.68-.116-.2-.078-.369-.225-.506-.443-.138-.217-.242-.52-.313-.91-.072-.39-.108-.9-.108-1.53 0-.659.043-1.195.129-1.61.086-.416.209-.74.37-.971.16-.233.352-.391.575-.477.224-.086.47-.13.739-.13M43.937 39.695h1.702v.335c0 .046-.01.076-.03.09-.02.015-.05.022-.09.022h-2.063v-5.843c0-.04.003-.073.009-.098.005-.026.023-.043.051-.052.029-.009.076-.014.142-.017.066-.003.159-.005.28-.005v5.568zM46.274 34.368c0-.057.003-.103.009-.137.006-.035.024-.059.056-.073.031-.015.08-.023.146-.026.065-.003.156-.004.27-.004v5.902c0 .029-.002.05-.008.064-.006.015-.025.026-.056.035-.032.009-.079.013-.142.013h-.275v-5.774zM49.797 38.045h1.555l-.413-1.589c-.045-.166-.088-.333-.128-.503-.04-.169-.076-.328-.108-.476-.031-.15-.058-.284-.081-.405-.023-.12-.038-.22-.043-.3l-.048.3c-.02.12-.047.256-.081.405l-.112.476c-.04.17-.083.337-.129.503l-.412 1.59zm1.675.438h-1.787l-.395 1.564c-.012.046-.031.075-.06.086-.029.012-.086.018-.172.018h-.12c-.052 0-.11-.006-.172-.018l1.624-5.962c.005-.052.06-.078.163-.078.086 0 .155.009.206.026l1.624 5.911c.011.046.004.077-.022.095-.025.017-.084.026-.176.026h-.116c-.048 0-.104-.004-.167-.01l-.43-1.658zM52.924 34.248c0-.052.01-.085.03-.099.02-.014.047-.022.082-.022h.318l.936 3.016c.012.046.035.126.069.24l.103.345.129.446.129-.438.099-.335c.03-.109.053-.186.064-.232l.902-2.921.035-.082c.011-.026.04-.039.086-.039h.36v5.903c0 .029-.002.05-.008.064-.006.015-.023.027-.052.035-.028.009-.076.013-.142.013h-.279l.018-2.483.077-2.423-.645 2.148-.498 1.46c-.017.052-.049.078-.095.078h-.223l-.48-1.538c-.013-.023-.041-.113-.087-.271l-.167-.558-.207-.675-.184-.61.021.477.026.683c.008.24.017.47.026.688.008.217.013.378.013.48l.008 2.432c0 .029-.003.05-.008.064-.006.015-.025.027-.056.035-.032.009-.08.013-.142.013h-.258v-5.894zM57.821 38.045h1.556l-.413-1.589c-.046-.166-.089-.333-.129-.503-.04-.169-.076-.328-.107-.476-.032-.15-.059-.284-.082-.405-.023-.12-.037-.22-.043-.3-.012.08-.027.18-.047.3s-.047.256-.082.405l-.111.476c-.04.17-.084.337-.13.503l-.412 1.59zm1.676.438h-1.788l-.395 1.564c-.011.046-.031.075-.06.086-.028.012-.086.018-.172.018h-.12c-.052 0-.109-.006-.172-.018l1.624-5.962c.006-.052.06-.078.163-.078.086 0 .155.009.207.026l1.623 5.911c.012.046.005.077-.021.095-.026.017-.084.026-.176.026h-.116c-.049 0-.105-.004-.168-.01l-.43-1.658zM62.426 37.728l-.094-.228c-.046-.112-.099-.248-.16-.408-.059-.16-.127-.335-.201-.525l-.22-.562c-.07-.186-.14-.364-.205-.533l-.168-.434c0 .11.001.251.005.426l.008.567.009.622.008.585c.003.178.004.33.004.455v2.337c0 .029-.002.05-.008.064-.006.015-.023.027-.051.035-.03.009-.075.013-.138.013h-.266v-5.894c0-.08.037-.12.111-.12h.335l1.031 2.37.095.25c.046.12.101.264.168.43.065.166.136.345.21.537.074.192.149.38.223.567.075.186.143.36.206.524.063.163.118.3.164.408-.006-.086-.012-.214-.017-.382-.006-.17-.01-.357-.013-.563-.003-.206-.005-.418-.005-.636 0-.217-.001-.421-.004-.61s-.004-.35-.004-.485v-2.29c0-.029.003-.052.008-.069.006-.017.023-.03.052-.039.028-.008.076-.013.142-.013h.27v5.903c0 .075-.037.112-.111.112h-.327l-1.057-2.414zM66.19 34.574v5.456c0 .029-.003.05-.009.065-.006.014-.025.025-.056.034-.031.009-.079.013-.142.013h-.266v-5.568h-1.263v-.326c0-.08.038-.12.112-.12h2.921v.335c0 .074-.037.111-.112.111H66.19zM68.011 34.368c0-.057.003-.103.009-.137.005-.035.024-.059.055-.073.032-.015.08-.023.146-.026.066-.003.157-.004.271-.004v5.902c0 .029-.003.05-.009.064-.005.015-.024.026-.055.035-.032.009-.079.013-.142.013h-.275v-5.774zM73.149 36.783c0-.413-.023-.76-.07-1.04-.045-.28-.117-.508-.214-.683-.098-.175-.219-.301-.365-.378-.146-.078-.316-.116-.511-.116h-.593v5.12h.576c.149 0 .294-.031.438-.094.143-.063.27-.198.378-.404.109-.206.196-.5.262-.88.066-.381.099-.89.099-1.525zm-1.152-2.655c.275 0 .517.047.726.141.21.095.383.247.52.456.138.209.242.485.314.829.071.343.107.764.107 1.263 0 .676-.043 1.23-.129 1.663-.086.432-.205.771-.356 1.018-.152.246-.332.415-.541.506-.21.092-.435.138-.675.138h-1.04v-5.868c0-.046.014-.082.043-.108.029-.025.086-.038.172-.038h.86zM76.646 39.704c0 .2-.005.323-.013.37-.009.045-.039.068-.09.068h-2.054v-5.894c0-.017.006-.037.017-.06.012-.011.023-.025.035-.039.011-.014.03-.022.06-.022h2.053c0 .195-.003.317-.008.366-.006.048-.032.073-.078.073h-1.615v2.07h1.512c0 .184-.004.303-.013.357-.008.055-.039.082-.09.082h-1.409v2.629h1.693zM77.848 39.695h1.701v.335c0 .046-.01.076-.03.09-.02.015-.05.022-.09.022h-2.062v-5.843c0-.04.003-.073.009-.098.005-.026.022-.043.051-.052.029-.009.076-.014.142-.017.066-.003.159-.005.28-.005v5.568zM82.153 39.695h1.7v.335c0 .046-.01.076-.029.09-.02.015-.05.022-.09.022h-2.062v-5.843c0-.04.002-.073.008-.098.006-.026.023-.043.052-.052.028-.009.076-.014.142-.017.065-.003.158-.005.279-.005v5.568zM86.672 39.704c0 .2-.005.323-.013.37-.009.045-.039.068-.09.068h-2.054v-5.894c0-.017.006-.037.017-.06.012-.011.023-.025.035-.039.011-.014.031-.022.06-.022h2.053c0 .195-.003.317-.008.366-.006.048-.032.073-.078.073H84.98v2.07h1.512c0 .184-.004.303-.013.357-.008.055-.038.082-.09.082H84.98v2.629h1.693zM89.043 34.042c.264 0 .48.04.649.12.169.08.254.172.254.275 0 .091-.024.189-.07.292-.091-.069-.197-.125-.317-.167-.12-.043-.264-.065-.43-.065-.223 0-.422.04-.597.12-.175.08-.321.222-.438.426-.117.203-.208.48-.27.829-.064.35-.095.793-.095 1.331 0 .567.028 1.02.086 1.358.057.338.135.596.236.773.1.178.219.294.357.348.137.055.286.082.446.082.206 0 .368-.04.486-.12.117-.08.19-.15.219-.207v-2.31h-.842v-.293c0-.074.043-.112.129-.112h1.16v3.024c-.035.035-.082.08-.142.134-.06.054-.138.107-.233.159-.094.051-.207.096-.339.133-.131.037-.283.056-.455.056-.252 0-.478-.039-.679-.116-.2-.078-.37-.225-.507-.443-.137-.217-.242-.52-.313-.91-.072-.39-.108-.9-.108-1.53 0-.659.043-1.195.13-1.61.085-.416.208-.74.369-.971.16-.233.352-.391.575-.477.224-.086.47-.13.74-.13M92.3 37.728c-.018-.04-.05-.116-.095-.228-.046-.112-.099-.248-.16-.408-.059-.16-.127-.335-.201-.525l-.219-.562-.206-.533-.168-.434c0 .11.001.251.005.426l.008.567.009.622.008.585c.003.178.004.33.004.455v2.337c0 .029-.002.05-.008.064-.006.015-.023.027-.052.035-.028.009-.074.013-.137.013h-.266v-5.894c0-.08.037-.12.111-.12h.335l1.031 2.37.095.25c.046.12.101.264.168.43.065.166.136.345.21.537.074.192.149.38.223.567.075.186.143.36.206.524.063.163.118.3.164.408-.006-.086-.012-.214-.017-.382-.006-.17-.01-.357-.013-.563-.003-.206-.005-.418-.005-.636 0-.217-.001-.421-.004-.61s-.004-.35-.004-.485v-2.29c0-.029.002-.052.008-.069.006-.017.023-.03.052-.039.028-.008.076-.013.142-.013h.27v5.903c0 .075-.037.112-.111.112h-.327L92.3 37.728zM95.117 37.238c0 .458.019.845.056 1.16.037.315.097.573.18.773.084.2.192.345.327.434.134.089.297.133.485.133.195 0 .363-.047.503-.142.14-.094.255-.248.343-.46.09-.211.154-.486.194-.824.04-.338.06-.75.06-1.237 0-.476-.019-.875-.055-1.199-.038-.323-.097-.586-.177-.786-.08-.2-.187-.345-.322-.434-.135-.089-.296-.133-.485-.133-.19 0-.354.047-.494.141-.141.095-.255.25-.344.465-.09.214-.156.495-.202.841-.046.347-.069.77-.069 1.268m-.524-.146c0-.556.034-1.028.103-1.418.069-.39.172-.705.31-.945.137-.24.309-.415.515-.524.206-.109.447-.163.722-.163.28 0 .518.051.713.155.195.103.352.273.473.51.12.238.207.55.262.937.054.387.081.866.081 1.44 0 .578-.032 1.068-.094 1.468-.064.401-.16.726-.292.976-.132.249-.301.428-.507.537-.207.108-.45.163-.73.163-.276 0-.512-.049-.71-.146-.197-.097-.358-.267-.48-.507-.124-.24-.216-.563-.275-.967-.06-.404-.091-.909-.091-1.516" transform="translate(-160 -82) translate(160 82.306)"/>
            </g>
        </g>
    </g>
</svg>
